<svg width="1199" height="525" viewBox="0 0 1199 525" fill="none" xmlns="http://www.w3.org/2000/svg">
<path d="M-5 39.5746L408.172 1L633.766 39.5746L824.845 1L1059.44 70.0755L1198 39.5746V444.608L960.401 487.668L594.749 472.866L301.127 524L-5 405.136V419.49L226.596 507.852H-5V419.49V405.136V39.5746Z" fill="#55174D"/>
<path d="M-5 405.136L301.127 524L594.749 472.866L960.401 487.668L1198 444.608V39.5746L1059.44 70.0755L824.845 1L633.765 39.5746L408.172 1L-5 39.5746V405.136ZM-5 405.136V419.49M-5 419.49L226.596 507.852H-5V419.49Z" stroke="#55174D"/>
<path d="M1058.5 62L924 21L1132 45.3297L1058.5 62Z" fill="#55174D"/>
</svg>
